<svg width="1800" height="1100" viewBox="0 0 1800 1100" fill="none" xmlns="http://www.w3.org/2000/svg">
  <rect width="1800" height="1100" fill="#05101A"/>
  <path d="M0 760C260 650 430 715 610 650C900 545 1020 310 1800 280V1100H0V760Z" fill="#061B27"/>
  <path d="M230 735C480 625 763 627 998 682C1192 736 1405 719 1628 622L1760 834C1382 1037 1020 953 754 900C502 850 330 870 132 982L230 735Z" fill="#0B88A6"/>
  <path d="M302 733C518 653 775 660 1011 725C1191 775 1397 753 1581 681L1664 816C1353 959 1050 901 783 850C569 809 386 823 221 907L302 733Z" fill="#16C8F2"/>
  <path d="M297 751C531 703 745 711 1005 778C1190 826 1382 803 1583 733" stroke="white" stroke-opacity=".45" stroke-width="5"/>
  <path d="M350 815C578 775 781 789 1012 844C1210 891 1394 867 1601 795" stroke="white" stroke-opacity=".22" stroke-width="3"/>
  <circle cx="1410" cy="270" r="210" fill="#0D2C39" fill-opacity=".6"/>
  <circle cx="1410" cy="270" r="140" stroke="#13C8F2" stroke-opacity=".24" stroke-width="3"/>
  <path d="M0 0H1800V420C1288 361 948 460 638 556C346 647 141 613 0 548V0Z" fill="url(#g)"/>
  <g opacity=".32" stroke="#86F0FF">
    <path d="M420 762C570 724 718 730 868 768"/>
    <path d="M520 828C690 799 835 808 1010 848"/>
    <path d="M1100 780C1258 812 1393 795 1540 742"/>
  </g>
  <defs>
    <linearGradient id="g" x1="1070" y1="0" x2="628" y2="794" gradientUnits="userSpaceOnUse">
      <stop stop-color="#00040A"/>
      <stop offset=".48" stop-color="#07131F" stop-opacity=".95"/>
      <stop offset="1" stop-color="#07131F" stop-opacity=".22"/>
    </linearGradient>
  </defs>
</svg>
